<?xml version="1.0" ?><svg style="enable-background:new 0 0 48 48;" version="1.1" viewBox="0 0 48 48" xml:space="preserve" xmlns="http://www.w3.org/2000/svg" xmlns:xlink="http://www.w3.org/1999/xlink"><style type="text/css">
	.st0{display:none;}
	.st1{fill:none;stroke:#303030;stroke-width:0.7;stroke-linecap:round;stroke-linejoin:round;stroke-miterlimit:10;}
	.st2{fill:#303030;}
</style><g class="st0" id="Padding__x26__Artboard"/><g id="Icons"><g><g><g><line class="st1" x1="18.04076" x2="19.06545" y1="26.67433" y2="21.1287"/><line class="st1" x1="20.40897" x2="21.43366" y1="26.67433" y2="21.1287"/><path class="st1" d="M19.50904,18.728l0.66982-3.62506c0.12199-0.66019,0.75464-1.20035,1.4059-1.20035      c0.65126,0,1.0843,0.54016,0.96231,1.20035L21.87725,18.728"/></g><g><line class="st1" x1="26.70843" x2="27.73312" y1="26.67433" y2="21.1287"/><path class="st1" d="M28.17671,18.728l0.66982-3.62506c0.12199-0.66019,0.75464-1.20035,1.4059-1.20035      c0.65126,0,1.0843,0.54016,0.96231,1.20035L30.54492,18.728"/><line class="st1" x1="29.07664" x2="30.10134" y1="26.67433" y2="21.1287"/></g><g><path class="st1" d="M30.54492,18.728h3.75362c0.65126,0,1.0843,0.54016,0.96231,1.20035s-0.75464,1.20035-1.4059,1.20035      h-3.75362"/><line class="st1" x1="28.17671" x2="21.87725" y1="18.728" y2="18.728"/><line class="st1" x1="27.73312" x2="21.43366" y1="21.1287" y2="21.1287"/><path class="st1" d="M19.06545,21.1287h-3.89571c-0.65126,0-1.0843-0.54016-0.96231-1.20035      c0.12199-0.66019,0.75464-1.20035,1.4059-1.20035h3.89572"/></g><g><line class="st1" x1="26.26484" x2="19.96538" y1="29.07503" y2="29.07503"/><line class="st1" x1="26.70843" x2="20.40897" y1="26.67433" y2="26.67433"/><path class="st1" d="M29.07664,26.67433h3.75362c0.65126,0,1.08652,0.52815,0.96231,1.20035      c-0.12199,0.66019-0.75464,1.20035-1.4059,1.20035h-3.75362"/><path class="st1" d="M17.59717,29.07503h-3.89571c-0.65126,0-1.0843-0.54016-0.96231-1.20035      c0.1242-0.6722,0.75464-1.20035,1.4059-1.20035h3.89571"/></g></g><path class="st1" d="M17.59717,29.07503l-0.70621,3.82203c-0.12199,0.66019,0.31105,1.20035,0.96231,1.20035    c0.65126,0,1.28391-0.54016,1.4059-1.20035l0.70621-3.82203"/><path class="st1" d="M26.26484,29.07503l-0.70621,3.82203c-0.12199,0.66019,0.31105,1.20035,0.96231,1.20035    c0.65126,0,1.28391-0.54016,1.4059-1.20035l0.70621-3.82203"/></g></g></svg>