<svg xmlns="http://www.w3.org/2000/svg" viewBox="0 0 18.42 14.12"><defs><style>.cls-1{fill:#b6c5cb;}</style></defs><g><g><path class="cls-1" d="M7.92,3.93A3.71,3.71,0,0,1,4,8,3.64,3.64,0,0,1,0,4,3.7,3.7,0,0,1,4,0,3.63,3.63,0,0,1,7.92,3.93Zm-5,0c0,1.17.36,1.71,1.08,1.71S5.06,5.12,5.06,4c0-1.28-.34-1.72-1.1-1.72S2.91,2.9,2.91,4Zm1.81,8.42L11.8.75a1,1,0,0,1,.86-.48h0a1,1,0,0,1,.85,1.53L6.44,13.43a1,1,0,0,1-.86.48h0A1,1,0,0,1,4.72,12.38Zm13.7-2.31a3.71,3.71,0,0,1-4,4,3.64,3.64,0,0,1-4-4,3.7,3.7,0,0,1,4-4A3.63,3.63,0,0,1,18.42,10.07Zm-5,0c0,1.17.36,1.71,1.08,1.71s1.07-.55,1.07-1.68-.34-1.71-1.1-1.71S13.41,9,13.41,10.1Z"/></g></g></svg>