<?xml version="1.0" encoding="utf-8"?>
<svg version="1.1" id="Capa_1" xmlns="http://www.w3.org/2000/svg" xmlns:xlink="http://www.w3.org/1999/xlink" x="0px" y="0px"
	 viewBox="0 0 512 512" style="enable-background:new 0 0 512 512;" xml:space="preserve">
<path class="st0" d="M0,0"/>
<path class="st1" d="M256,3.7C115.8,3.7,2.1,117.3,2.1,257.5S115.8,511.4,256,511.4s253.9-113.7,253.9-253.9S396.2,3.7,256,3.7z
	 M381,363.3c-5,12-12.1,22.7-21.1,32c-9,9.3-19.7,17.1-32,23.3c-12.3,6.2-25.8,10.6-40.5,13.2v32.8c0,6.7-3.7,10.1-11,10.1h-43.1
	c-6.7,0-10.1-3.4-10.1-10.1v-33.5c-12.1-2.6-23.8-6.6-35.1-11.9c-11.3-5.4-22-11.7-32.1-19c-6.1-4.4-11.3-8.8-15.5-13.1
	c-4.2-4.3-7.5-7.7-10-10.3l-0.7-0.7c-0.2-0.3-0.3-0.5-0.5-0.6c-0.2-0.1-0.3-0.2-0.5-0.3c-0.2-0.3-0.3-0.5-0.5-0.6
	c-0.2-0.1-0.3-0.2-0.5-0.3c-3.5-3.8-5.3-6.9-5.3-9.2c0-2.6,1.8-5.5,5.3-8.7l39.7-37.9c3.2-2.3,5.8-3.4,7.8-3.4
	c1.4,0,2.8,0.5,4.4,1.4c1.5,0.9,3.4,2.3,5.5,4.1c2.6,2.1,5.9,5,10,8.6c4.1,3.6,8.7,7.2,13.9,10.7c7.8,5.2,15.5,9.3,23.2,12.2
	c7.6,2.9,15.7,4.4,24.1,4.4c7.8,0,14.3-0.9,19.6-2.6c5.3-1.8,9.4-4.1,12.5-7c3.1-2.9,5.2-6.3,6.5-10.1c1.3-3.8,1.9-7.9,1.9-12.2
	c0-4.7-1.8-9-5.4-12.7c-3.6-3.7-8-7.1-13.2-10c-5.2-2.9-10.6-5.4-16.3-7.5c-5.7-2.1-10.6-3.8-14.7-5.2
	c-18.4-6.4-34.4-13.3-48.2-20.8c-13.8-7.4-25.2-15.7-34.4-24.8c-9.2-9.1-16.1-19.1-20.6-30.1c-4.6-10.9-6.9-23.1-6.9-36.6
	c0-11.8,2-22.6,6-32.6c4-9.9,9.6-18.8,17-26.6s16.3-14.4,27-19.8c10.6-5.4,22.6-9.4,35.9-12V54c0-2.8,0.8-5.1,2.5-7.1
	c1.7-2,4.2-3,7.6-3h43.1c2.3,0,4.7,0.9,7.2,2.8c2.5,1.8,3.8,4.3,3.8,7.3v30.7c8.6,1.5,16.9,3.7,25.1,6.5c8.2,2.8,16.3,6.5,24.4,10.9
	c5.2,3.1,10.1,6.2,14.8,9.5c4.7,3.3,8.8,6.5,12.3,9.5c3.5,3.1,6.3,6,8.4,8.7c2.1,2.8,3.1,5.1,3.1,7.1c0,2-0.5,3.8-1.5,5.5
	c-1,1.7-2.5,3.6-4.5,5.7l-35.1,37.4c-2.6,2.6-5.2,3.9-7.8,3.9c-2.1,0-4.1-0.6-5.8-1.8c-1.8-1.2-3.7-2.8-5.8-4.6l-2.1-1.8
	c-3.1-2.6-6.5-5.3-10.2-8c-3.8-2.8-7.8-5.2-12-7.5c-4.3-2.2-8.8-4.1-13.5-5.5c-4.7-1.5-9.6-2.2-14.5-2.2c-5,0-9.8,0.4-14.2,1.3
	c-4.4,0.8-8.3,2.2-11.7,4c-3.4,1.8-6,4.2-8,7.2c-2,3-3,6.6-3,10.9c0,4.3,1.1,8,3.2,11.1c2.1,3.1,5.4,6,9.6,8.7
	c4.3,2.7,9.6,5.2,15.9,7.6c6.3,2.4,13.7,4.9,22.1,7.7c16.2,5.4,31.2,11,44.8,16.9c13.7,5.9,25.5,12.8,35.4,20.9
	c9.9,8,17.7,17.6,23.3,28.8c5.6,11.2,8.4,24.7,8.4,40.6C388.6,338.2,386.1,351.3,381,363.3z"/>
</svg>
